<?xml version="1.0" encoding="UTF-8" standalone="no"?><!DOCTYPE svg PUBLIC "-//W3C//DTD SVG 1.1//EN" "http://www.w3.org/Graphics/SVG/1.1/DTD/svg11.dtd"><svg width="100%" height="100%" viewBox="0 0 1920 1080" version="1.1" xmlns="http://www.w3.org/2000/svg" xmlns:xlink="http://www.w3.org/1999/xlink" xml:space="preserve" xmlns:serif="http://www.serif.com/" style="fill-rule:evenodd;clip-rule:evenodd;stroke-linejoin:round;stroke-miterlimit:1.41421;"><rect x="0" y="0" width="1920" height="1080" style="fill:url(#_Linear1);"/><circle cx="1403.84" cy="750.399" r="180.124" style="fill:#ffbb8d;"/><path d="M1645.62,595.382l123.824,488.997l-247.648,0l123.824,-488.997Z" style="fill:url(#_Linear2);"/><path d="M477.571,510.332l139.362,574.047l-278.723,0l139.361,-574.047Z" style="fill:url(#_Linear3);"/><path d="M323.03,647.274l199.086,437.105l-398.172,0l199.086,-437.105Z" style="fill:url(#_Linear4);"/><path d="M1507.95,734.172l139.361,350.207l-278.723,0l139.362,-350.207Z" style="fill:url(#_Linear5);"/><path d="M777.318,566.133l280.807,518.246l-561.613,0l280.806,-518.246Z" style="fill:url(#_Linear6);"/><path d="M1227.69,566.133l392.204,518.246l-784.407,0l392.203,-518.246Z" style="fill:url(#_Linear7);"/><path d="M488.899,212.723c0,-26.528 -20.351,-48.071 -46.215,-50.476c-4.476,-35.541 -34.446,-63.125 -71.159,-63.125c-17.555,0 -33.39,6.471 -45.902,16.852c-11.749,-15.014 -29.832,-24.847 -50.359,-24.847c-30.673,0 -56.204,21.524 -62.597,50.241c-33.351,2.327 -59.742,29.813 -59.742,63.77c0,35.424 28.737,64.142 64.18,64.142c7.526,0 14.681,-1.525 21.387,-3.91c11.69,16.03 30.477,26.567 51.825,26.567c13.059,0 25.18,-3.949 35.326,-10.654c11.573,11.221 27.29,18.22 44.709,18.22c25.629,0 47.563,-15.151 57.846,-36.89c3.148,0.606 6.373,1.017 9.716,1.017c28.151,0.019 50.985,-22.795 50.985,-50.907Z" style="fill:#58b6e8;fill-rule:nonzero;"/><path d="M1725.96,447.916c0,-31.952 -24.511,-57.899 -55.662,-60.795c-5.392,-42.806 -41.487,-76.029 -85.706,-76.029c-21.144,0 -40.216,7.794 -55.285,20.296c-14.151,-18.083 -35.93,-29.926 -60.653,-29.926c-36.943,0 -67.694,25.924 -75.393,60.512c-40.169,2.802 -71.955,35.907 -71.955,76.806c0,42.664 34.612,77.253 77.3,77.253c9.065,0 17.682,-1.837 25.759,-4.709c14.08,19.307 36.707,31.998 62.419,31.998c15.728,0 30.327,-4.756 42.547,-12.832c13.939,13.515 32.869,21.944 53.849,21.944c30.868,0 57.286,-18.247 69.671,-44.43c3.791,0.73 7.676,1.224 11.702,1.224c33.906,0.024 61.407,-27.454 61.407,-61.312Z" style="fill:url(#_Linear8);fill-rule:nonzero;"/><defs><linearGradient id="_Linear1" x1="0" y1="0" x2="1" y2="0" gradientUnits="userSpaceOnUse" gradientTransform="matrix(1920,0,0,1080,0,540)"><stop offset="0" style="stop-color:#20a3ea;stop-opacity:1"/><stop offset="1" style="stop-color:#67b2da;stop-opacity:1"/></linearGradient><linearGradient id="_Linear2" x1="0" y1="0" x2="1" y2="0" gradientUnits="userSpaceOnUse" gradientTransform="matrix(247.648,0,0,488.996,1521.8,839.88)"><stop offset="0" style="stop-color:#0277bd;stop-opacity:1"/><stop offset="1" style="stop-color:#89c1e0;stop-opacity:1"/></linearGradient><linearGradient id="_Linear3" x1="0" y1="0" x2="1" y2="0" gradientUnits="userSpaceOnUse" gradientTransform="matrix(278.723,0,0,574.047,338.21,797.355)"><stop offset="0" style="stop-color:#0277bd;stop-opacity:1"/><stop offset="1" style="stop-color:#89c1e0;stop-opacity:1"/></linearGradient><linearGradient id="_Linear4" x1="0" y1="0" x2="1" y2="0" gradientUnits="userSpaceOnUse" gradientTransform="matrix(398.173,0,0,437.105,123.944,865.826)"><stop offset="0" style="stop-color:#0277bd;stop-opacity:1"/><stop offset="1" style="stop-color:#89c1e0;stop-opacity:1"/></linearGradient><linearGradient id="_Linear5" x1="0" y1="0" x2="1" y2="0" gradientUnits="userSpaceOnUse" gradientTransform="matrix(278.723,0,0,350.207,1368.59,909.275)"><stop offset="0" style="stop-color:#0277bd;stop-opacity:1"/><stop offset="1" style="stop-color:#89c1e0;stop-opacity:1"/></linearGradient><linearGradient id="_Linear6" x1="0" y1="0" x2="1" y2="0" gradientUnits="userSpaceOnUse" gradientTransform="matrix(561.612,0,0,518.246,496.512,825.256)"><stop offset="0" style="stop-color:#0277bd;stop-opacity:1"/><stop offset="1" style="stop-color:#89c1e0;stop-opacity:1"/></linearGradient><linearGradient id="_Linear7" x1="0" y1="0" x2="1" y2="0" gradientUnits="userSpaceOnUse" gradientTransform="matrix(784.407,0,0,518.246,835.486,825.256)"><stop offset="0" style="stop-color:#0277bd;stop-opacity:1"/><stop offset="1" style="stop-color:#89c1e0;stop-opacity:1"/></linearGradient><linearGradient id="_Linear8" x1="0" y1="0" x2="1" y2="0" gradientUnits="userSpaceOnUse" gradientTransform="matrix(404.654,0,0,250.972,1321.31,426.948)"><stop offset="0" style="stop-color:#75b5db;stop-opacity:1"/><stop offset="1" style="stop-color:#66bfee;stop-opacity:1"/></linearGradient></defs></svg>