<?xml version="1.0" encoding="UTF-8" standalone="no"?><!DOCTYPE svg PUBLIC "-//W3C//DTD SVG 1.1//EN" "http://www.w3.org/Graphics/SVG/1.1/DTD/svg11.dtd"><svg width="100%" height="100%" viewBox="0 0 512 512" version="1.1" xmlns="http://www.w3.org/2000/svg" xmlns:xlink="http://www.w3.org/1999/xlink" xml:space="preserve" xmlns:serif="http://www.serif.com/" style="fill-rule:evenodd;clip-rule:evenodd;stroke-linejoin:round;stroke-miterlimit:1.41421;"><path d="M446.898,197.555c-7.767,-87.376 -80.832,-154.888 -169.565,-154.888c-69.885,0 -132.083,42.763 -157.717,106.854c-0.764,-0.016 -1.518,-0.188 -2.283,-0.188c-64.698,0 -117.333,52.636 -117.333,117.334c0,64.698 52.635,117.333 117.333,117.333l298.667,0c52.938,0 96,-43.063 96,-96c0,-42.068 -27.368,-77.503 -65.102,-90.445Z" style="fill:#303c42;fill-rule:nonzero;"/><path d="M416,362.667l-298.667,0c-52.938,0 -96,-43.063 -96,-96c0,-52.937 43.063,-96 96,-96c20.49,0 40.958,6.833 57.635,19.229c4.75,3.521 11.438,2.521 14.927,-2.198c3.51,-4.729 2.531,-11.406 -2.198,-14.927c-13.688,-10.174 -29.552,-16.961 -46.055,-20.513c23.642,-53.117 76.469,-88.258 135.691,-88.258c75.413,0 137.96,55.694 147.702,128.913c-3.02,-0.288 -5.941,-0.913 -9.035,-0.913c-5.896,0 -10.667,4.771 -10.667,10.667c0,5.896 4.771,10.667 10.667,10.667c41.167,0 74.667,33.5 74.667,74.667c0,41.167 -33.5,74.666 -74.667,74.666Z" style="fill:#f2f2f2;fill-rule:nonzero;"/><path d="M439.819,217.589c11.583,13.159 18.848,30.214 18.848,49.078c0,41.167 -33.5,74.667 -74.667,74.667l-298.667,0c-12.805,0 -24.984,-2.622 -36.163,-7.191c17.409,17.586 41.518,28.525 68.163,28.525l298.667,0c41.167,0 74.667,-33.5 74.667,-74.667c0,-32.791 -21.395,-60.406 -50.848,-70.412Z" style="fill-opacity:0.1;fill-rule:nonzero;"/><circle cx="266.667" cy="352" r="117.333" style="fill:#303c42;"/><circle cx="266.667" cy="352" r="96" style="fill:#0277bd;"/><path d="M274.208,280.458c-4.167,-4.167 -10.917,-4.167 -15.083,0l-42.667,42.667c-4.167,4.167 -4.167,10.917 0,15.083c4.167,4.167 10.917,4.167 15.083,0l24.459,-24.458l0,102.25c0,5.896 4.771,10.667 10.667,10.667c5.896,0 10.667,-4.771 10.667,-10.667l0,-102.25l24.458,24.458c2.083,2.083 4.813,3.125 7.542,3.125c2.729,0 5.458,-1.042 7.542,-3.125c4.167,-4.167 4.167,-10.917 0,-15.083l-42.668,-42.667Z" style="fill:#303c42;fill-rule:nonzero;"/><path d="M446.898,197.555c-7.767,-87.376 -80.832,-154.888 -169.565,-154.888c-69.885,0 -132.083,42.763 -157.717,106.854c-0.764,-0.016 -1.518,-0.188 -2.283,-0.188c-64.698,0 -117.333,52.636 -117.333,117.334c0,64.698 52.635,117.333 117.333,117.333l36.548,0c13.977,49.173 59.191,85.333 112.785,85.333c53.594,0 98.809,-36.16 112.785,-85.333l36.549,0c52.938,0 96,-43.063 96,-96c0,-42.068 -27.368,-77.503 -65.102,-90.445Z" style="fill:url(#_Linear1);fill-rule:nonzero;"/><defs><linearGradient id="_Linear1" x1="0" y1="0" x2="1" y2="0" gradientUnits="userSpaceOnUse" gradientTransform="matrix(446.832,208.356,-208.356,446.832,43.7845,146.797)"><stop offset="0" style="stop-color:#fff;stop-opacity:0.2"/><stop offset="1" style="stop-color:#fff;stop-opacity:0"/></linearGradient></defs></svg>